# AST/ASF file generated using VICON BodyLanguage
# -----------------------------------------------
:version 1.10
:name VICON
:units
  mass 1.0
  length 0.45
  angle deg
:documentation
   .ast/.asf automatically generated from VICON data using
   VICON BodyBuilder and BodyLanguage model FoxedUp or BRILLIANT.MOD
:root
   order TX TY TZ RX RY RZ
   axis XYZ
   position 0 0 0  
   orientation 0 0 0 
:bonedata
  begin
     id 1 
     name lhipjoint
     direction 0.521689 -0.742065 0.420928 
     length 2.47002 
     axis 0 0 0  XYZ
  end
  begin
     id 2 
     name lfemur
     direction 0.34202 -0.939693 0  
     length 7.24654  
     axis 0 0 20  XYZ
    dof rx ry rz
    limits (-160.0 20.0)
           (-70.0 70.0)
           (-60.0 70.0)
  end
  begin
     id 3 
     name ltibia
     direction 0.34202 -0.939693 0   
     length 8.04849   
     axis 0 0 20   XYZ
    dof rx
    limits (-10.0 170.0)
  end
  begin
     id 4 
     name lfoot
     direction 0.0745411 -0.2048 0.975961   
     length 1.72367   
     axis -90 7.62852e-016 20   XYZ
    dof rx rz
    limits (-45.0 90.0)
           (-70.0 20.0)
  end
  begin
     id 5 
     name ltoes
     direction 1.53556e-011 -4.21901e-011 1   
     length 0.87311   
     axis -90 7.62852e-016 20   XYZ
    dof rx
    limits (-90.0 20.0)
  end
  begin
     id 6 
     name rhipjoint
     direction -0.52849 -0.738415 0.418857   
     length 2.48223  
     axis 0 0 0  XYZ 
  end
  begin
     id 7 
     name rfemur
     direction -0.34202 -0.939693 0   
     length 7.15571   
     axis 0 0 -20   XYZ
    dof rx ry rz
    limits (-160.0 20.0)
           (-70.0 70.0)
           (-70.0 60.0)
  end
  begin
     id 8 
     name rtibia
     direction -0.34202 -0.939693 0   
     length 7.81659   
     axis 0 0 -20   XYZ
    dof rx
    limits (-10.0 170.0)
 end
 begin
     id 9 
     name rfoot
     direction -0.0917348 -0.252039 0.963359   
     length 1.84382  
     axis -90 -7.62852e-016 -20   XYZ
    dof rx rz
    limits (-45.0 90.0)
           (-20.0 70.0)
  end
  begin
     id 10 
     name rtoes
     direction -1.53551e-011 -4.21879e-011 1   
     length 0.927771   
     axis -90 -7.62852e-016 -20   XYZ
    dof rx
    limits (-90.0 20.0)
  end
  begin
     id 11 
     name lowerback
     direction 0.00583058 0.999822 0.0179296   
     length 2.1429   
     axis 0 0 0   XYZ
    dof rx ry rz
    limits (-20.0 45.0)
           (-30.0 30.0)
           (-30.0 30.0)
  end
  begin
     id 12 
     name upperback
     direction -0.0137999 0.999752 -0.0175071   
     length 2.14252   
     axis 0 0 0   XYZ
    dof rx ry rz
    limits (-20.0 45.0)
           (-30.0 30.0)
           (-30.0 30.0)
  end
  begin
     id 13 
     name thorax
     direction -0.0158036 0.99955 -0.0254909   
     length 2.1383   
     axis 0 0 0   XYZ
    dof rx ry rz
    limits (-20.0 45.0)
           (-30.0 30.0)
           (-30.0 30.0)
  end
  begin
     id 14 
     name lowerneck
     direction -0.0101179 0.999403 -0.0330262   
     length 1.65808   
     axis 0 0 0   XYZ
    dof rx ry rz
    limits (-20.0 45.0)
           (-30.0 30.0)
           (-30.0 30.0)
  end
  begin
     id 15 
     name upperneck
     direction 0.0497734 0.995978 -0.074501   
     length 1.5897   
     axis 0 0 0   XYZ
    dof rx ry rz
    limits (-20.0 45.0)
           (-30.0 30.0)
           (-30.0 30.0)
  end
  begin
     id 16
     name head
     direction 0.0189524 0.999519 -0.0245438  
     length 1.74024  
     axis 0 0 0   XYZ
    dof rx ry rz
    limits (-20.0 45.0)
           (-30.0 30.0)
           (-30.0 30.0)
  end
  begin
     id 17 
     name lclavicle
     direction 0.945604 0.324422 0.0241537  
     length 3.59089  
     axis 0 0 0   XYZ
    dof ry rz
    limits (-20.0 10.0)
           (0.0 20.0)
  end
  begin
     id 18 
     name lhumerus
     direction 1 -4.48964e-011 -2.63524e-027   
     length 5.2391   
     axis 180 -30 -90   XYZ
    dof rx ry rz
    limits (-60.0 90.0)
           (-90.0 90.0)
           (-90.0 90.0)
  end
  begin
     id 19
     name lradius
     direction 1 -4.48969e-011 3.86978e-028   
     length 3.31467   
     axis 180 -30 -90   XYZ
    dof rx
    limits (-10.0 170.0)
  end
  begin
     id 20
     name lwrist
     direction 1 -4.48963e-011 7.20928e-028   
     length 1.65734   
     axis -5.52449e-016 90 90   XYZ
    dof ry
    limits (-180.0 0.0)
 end
  begin
     id 21 
     name lhand
     direction 1 -4.48964e-011 1.44186e-027   
     length 0.9659   
     axis -9.20027e-016 90 90   XYZ
    dof rx rz
    limits (-90.0 90.0)
           (-45.0 45.0)
  end
  begin
     id 22 
     name lfingers
     direction 1 -4.48965e-011 2.88371e-027   
     length 0.778733   
     axis -1.84005e-015 90 90   XYZ
    dof rx
    limits (0.0 90.0)
  end
  begin
     id 23
     name lthumb
     direction 0.707107 -6.34931e-011 0.707107   
     length 1.11811   
     axis -90 45 2.85299e-015   XYZ
    dof rx rz
    limits (-45.0 45.0)
           (-45.0 45.0)
  end
  begin
     id 24 
     name rclavicle
     direction -0.923762 0.370785 0.0958234   
     length 3.54196  
     axis 0 0 0   XYZ 
    dof ry rz
    limits (-10.0 20.0)
           (-20.0 0.0)
  end
  begin
     id 25 
     name rhumerus
     direction -1 -4.48966e-011 1.18702e-017  
     length 5.30252   
     axis 180 30 90   XYZ
    dof rx ry rz
    limits (-90.0 60.0)
           (-90.0 90.0)
           (-90.0 90.0)
  end
  begin
     id 26 
     name rradius
     direction -1 -4.48966e-011 4.46736e-027   
     length 3.67875   
     axis 180 30 90   XYZ
    dof rx
    limits (-10.0 170.0)
  end
  begin
     id 27 
     name rwrist
     direction -1 -4.48966e-011 7.20928e-028   
     length 1.83937   
     axis -5.52449e-016 -90 -90   XYZ
    dof ry
    limits (-180.0 0.0)
  end
  begin
     id 28
     name rhand
     direction -1 -4.48973e-011 1.44186e-027   
     length 0.594811   
     axis -9.20027e-016 -90 -90   XYZ
    dof rx rz
    limits (-90.0 90.0)
           (-45.0 45.0)
  end
  begin
     id 29
     name rfingers
     direction -1 -4.48963e-011 2.88371e-027   
     length 0.479552   
     axis -1.84005e-015 -90 -90   XYZ
    dof rx
    limits (0.0 90.0)
  end
  begin
     id 30
     name rthumb
     direction -0.707107 -6.34932e-011 0.707107   
     length 0.688544   
     axis -90 -45 -2.85299e-015   XYZ
    dof rx rz
    limits (-45.0 45.0)
           (-45.0 45.0)
  end
:hierarchy
  begin
    root lhipjoint rhipjoint lowerback
    lhipjoint lfemur
    lfemur ltibia
    ltibia lfoot
    lfoot ltoes
    rhipjoint rfemur
    rfemur rtibia
    rtibia rfoot
    rfoot rtoes
    lowerback upperback
    upperback thorax
    thorax lowerneck lclavicle rclavicle
    lowerneck upperneck
    upperneck head
    lclavicle lhumerus
    lhumerus lradius
    lradius lwrist
    lwrist lhand lthumb
    lhand lfingers
    rclavicle rhumerus
    rhumerus rradius
    rradius rwrist
    rwrist rhand rthumb
    rhand rfingers
  end

#!OML:ASF E:\acrobat2\Project_11_07_03\Capture day 1\Session 1\Acrobat.ASF
:FULLY-SPECIFIED
:DEGREES
317
root 10.4062 28.1953 -30.2455 12 -1.36144 0.938291
lowerback 5.19006 0.61675 2.49195
upperback 3.36608 0.919766 0.902893
thorax 0.576503 0.488075 -0.511995
lowerneck -2.34988 -1.50689 0.283491
upperneck 8.39694 -1.91239 -1.45661
head 3.07194 -0.988522 -0.583828
rclavicle -1.17283e-014 4.77083e-015
rhumerus -33.9157 -2.65009 -78.2223
rradius 34.1232
rwrist 3.74663
rhand 0.651968 -18.8825
rfingers 7.12502
rthumb 26.2147 -47.092
lclavicle -1.17283e-014 4.77083e-015
lhumerus -27.6798 -21.7745 84.0986
lradius 45.2376
lwrist 9.31656
lhand -8.50898 -12.5803
lfingers 7.12502
lthumb 17.419 16.6592
rfemur -16.707 -1.28341 19.9397
rtibia 12.8376
rfoot -7.10836 -15.3429
rtoes -4.82787
lfemur -20.3985 -2.41784 -17.3495
ltibia 28.114
lfoot -7.11923 -10.1165
ltoes 24.8066
318
root 10.4057 28.1947 -30.177 11.7716 -1.5196 0.912918
lowerback 5.09967 0.546846 2.4396
upperback 3.37536 0.82161 0.860124
thorax 0.633431 0.43932 -0.521031
lowerneck -2.38281 -1.42387 0.352037
upperneck 8.48918 -1.80701 -1.42579
head 3.11044 -0.933551 -0.583571
rclavicle -1.8487e-014 -1.03368e-014
rhumerus -34.0604 -2.7082 -78.1879
rradius 34.2842
rwrist 3.6844
rhand 0.713415 -18.7531
rfingers 7.12502
rthumb 26.2735 -46.9539
lclavicle -1.8487e-014 -1.03368e-014
lhumerus -27.9884 -22.0504 84.0717
lradius 45.4669
lwrist 9.28498
lhand -8.27913 -12.6
lfingers 7.12502
lthumb 17.6402 16.6197
rfemur -16.5537 -1.1836 19.6452
rtibia 12.6394
rfoot -6.28026 -15.5991
rtoes -5.04889
lfemur -19.2813 -2.81479 -17.4878
ltibia 26.9497
lfoot -7.84072 -10.2658
ltoes 24.9034
319
root 10.4052 28.1902 -30.1094 11.6017 -1.74037 0.85121
lowerback 4.96617 0.489081 2.3788
upperback 3.3529 0.738646 0.833091
thorax 0.681773 0.397515 -0.509858
lowerneck -2.39472 -1.3242 0.406778
upperneck 8.60141 -1.67807 -1.40107
head 3.15225 -0.867501 -0.581972
rclavicle 4.77083e-015 4.77083e-015
rhumerus -34.2282 -2.70969 -78.1393
rradius 34.4396
rwrist 3.63698
rhand 0.759854 -18.6222
rfingers 7.12502
rthumb 26.318 -46.8164
lclavicle 4.77083e-015 4.77083e-015
lhumerus -28.343 -22.2644 84.0515
lradius 45.709
lwrist 9.23365
lhand -8.06684 -12.6738
lfingers 7.12502
lthumb 17.8445 16.5275
rfemur -16.5076 -1.02112 19.3724
rtibia 12.511
rfoot -5.52188 -15.8379
rtoes -5.12539
lfemur -18.2255 -3.16388 -17.5972
ltibia 25.6263
lfoot -8.57215 -10.3459
ltoes 24.6644
320
root 10.404 28.1821 -30.0422 11.4765 -1.95418 0.770366
lowerback 4.80365 0.424319 2.30051
upperback 3.30264 0.645595 0.824143
thorax 0.717081 0.3499 -0.470123
lowerneck -2.39753 -1.20884 0.446718
upperneck 8.73153 -1.52794 -1.36819
head 3.19899 -0.791121 -0.574399
rclavicle 1.98785e-015 1.15295e-014
rhumerus -34.4129 -2.66422 -78.0755
rradius 34.6016
rwrist 3.59228
rhand 0.83156 -18.5314
rfingers 7.12502
rthumb 26.3866 -46.7152
lclavicle 1.98785e-015 1.15295e-014
lhumerus -28.7297 -22.4075 84.0323
lradius 45.9638
lwrist 9.13664
lhand -7.79731 -12.7353
lfingers 7.12502
lthumb 18.1039 16.4422
rfemur -16.5226 -0.823185 19.1077
rtibia 12.42
rfoot -4.85519 -16.1022
rtoes -5.09926
lfemur -17.2658 -3.46397 -17.689
ltibia 24.2353
lfoot -9.23224 -10.4111
ltoes 24.228
321
root 10.402 28.1714 -29.9756 11.3698 -2.12628 0.678516
lowerback 4.63853 0.341143 2.20774
upperback 3.24175 0.527941 0.833755
thorax 0.74225 0.289447 -0.402682
lowerneck -2.41193 -1.08231 0.472613
upperneck 8.86269 -1.36315 -1.32407
head 3.2487 -0.707556 -0.560206
rclavicle -1.98785e-016 -9.54166e-015
rhumerus -34.5984 -2.57668 -77.9967
rradius 34.7833
rwrist 3.53535
rhand 0.920968 -18.4858
rfingers 7.12502
rthumb 26.4722 -46.6568
lclavicle -1.98785e-016 -9.54166e-015
lhumerus -29.1049 -22.474 84.0039
lradius 46.2121
lwrist 8.9792
lhand -7.38433 -12.7379
lfingers 7.12502
lthumb 18.5012 16.4023
rfemur -16.5555 -0.634074 18.8473
rtibia 12.3548
rfoot -4.28109 -16.3879
rtoes -5.015
lfemur -16.416 -3.70112 -17.7764
ltibia 22.8675
lfoot -9.77734 -10.4989
ltoes 23.6539
322
root 10.3998 28.1589 -29.9102 11.2678 -2.25216 0.580609
lowerback 4.49044 0.240124 2.11227
upperback 3.17992 0.387256 0.851753
thorax 0.756889 0.217305 -0.324806
lowerneck -2.43865 -0.96022 0.512512
upperneck 8.96998 -1.20482 -1.28721
head 3.29243 -0.626974 -0.550759
rclavicle 2.78299e-015 5.96354e-015
rhumerus -34.7795 -2.46955 -77.9126
rradius 34.9908
rwrist 3.46979
rhand 1.00607 -18.4727
rfingers 7.12502
rthumb 26.5537 -46.6314
lclavicle 2.78299e-015 5.96354e-015
lhumerus -29.4424 -22.4779 83.9541
lradius 46.436
lwrist 8.77019
lhand -6.85001 -12.725
lfingers 7.12502
lthumb 19.0151 16.3655
rfemur -16.5967 -0.486413 18.5898
rtibia 12.3275
rfoot -3.79882 -16.674
rtoes -4.90822
lfemur -15.6852 -3.84498 -17.8744
ltibia 21.5857
lfoot -10.1856 -10.6211
ltoes 23.0375
323
root 10.3972 28.1453 -29.8469 11.1612 -2.33542 0.475552
lowerback 4.37683 0.133361 2.03518
upperback 3.1191 0.24074 0.858728
thorax 0.75402 0.142539 -0.268855
lowerneck -2.46306 -0.861347 0.606007
upperneck 9.0466 -1.07969 -1.2645
head 3.32458 -0.561465 -0.556025
rclavicle -4.96962e-015 0
rhumerus -34.9797 -2.39133 -77.8378
rradius 35.2417
rwrist 3.40132
rhand 1.11106 -18.5158
rfingers 7.12502
rthumb 26.6541 -46.6593
lclavicle -4.96962e-015 0
lhumerus -29.7224 -22.4652 83.863
lradius 46.6244
lwrist 8.50557
lhand -6.33531 -12.7403
lfingers 7.12502
lthumb 19.51 16.3009
rfemur -16.6391 -0.381748 18.3407
rtibia 12.3409
rfoot -3.42472 -16.9464
rtoes -4.7241
lfemur -15.0742 -3.87485 -17.9863
ltibia 20.4401
lfoot -10.4332 -10.7974
ltoes 22.7954
324
root 10.3943 28.1311 -29.7861 11.0444 -2.38627 0.35624
lowerback 4.29833 0.031915 1.99243
upperback 3.06923 0.103314 0.848141
thorax 0.74366 0.0730252 -0.25079
lowerneck -2.49238 -0.789006 0.740032
upperneck 9.09227 -0.994171 -1.22502
head 3.34656 -0.513465 -0.564036
rclavicle -1.11319e-014 -1.03368e-014
rhumerus -35.1946 -2.3654 -77.7741
rradius 35.5261
rwrist 3.33584
rhand 1.23212 -18.5895
rfingers 7.12502
rthumb 26.77 -46.7153
lclavicle -1.11319e-014 -1.03368e-014
lhumerus -29.9309 -22.4714 83.7261
lradius 46.7861
lwrist 8.21218
lhand -5.71989 -12.6819
lfingers 7.12502
lthumb 20.1016 16.2982
rfemur -16.6759 -0.309916 18.1103
rtibia 12.387
rfoot -3.17051 -17.1966
rtoes -4.32421
lfemur -14.578 -3.79621 -18.1065
ltibia 19.4737
lfoot -10.5296 -11.0337
ltoes 23.3231
325
root 10.3911 28.1164 -29.7275 10.9205 -2.39309 0.222488
lowerback 4.24246 -0.067631 1.9754
upperback 3.0349 -0.030391 0.833373
thorax 0.736934 0.00591463 -0.251692
lowerneck -2.53911 -0.735194 0.863901
upperneck 9.1074 -0.937528 -1.13659
head 3.36126 -0.478201 -0.555218
rclavicle 1.0635e-014 7.15625e-015
rhumerus -35.414 -2.37043 -77.709
rradius 35.828
rwrist 3.27519
rhand 1.35806 -18.6668
rfingers 7.12502
rthumb 26.8905 -46.7741
lclavicle 1.0635e-014 7.15625e-015
lhumerus -30.09 -22.4988 83.5679
lradius 46.9453
lwrist 7.92861
lhand -5.23863 -12.6649
lfingers 7.12502
lthumb 20.5641 16.2659
rfemur -16.6987 -0.270731 17.9012
rtibia 12.4418
rfoot -3.04499 -17.4396
rtoes -3.64468
lfemur -14.1944 -3.63826 -18.2307
ltibia 18.7074
lfoot -10.5203 -11.3014
ltoes 24.4463
326
root 10.387 28.1016 -29.6709 10.7939 -2.34755 0.0792093
lowerback 4.21139 -0.166091 1.95756
upperback 3.00608 -0.162102 0.829412
thorax 0.722147 -0.0603369 -0.24119
lowerneck -2.59529 -0.693731 0.946894
upperneck 9.10508 -0.900187 -0.992305
head 3.37182 -0.451708 -0.521652
rclavicle -6.95746e-016 -1.19271e-014
rhumerus -35.6512 -2.3916 -77.6233
rradius 36.1345
rwrist 3.21325
rhand 1.49012 -18.7822
rfingers 7.12502
rthumb 27.0169 -46.87
lclavicle -6.95746e-016 -1.19271e-014
lhumerus -30.2271 -22.5569 83.4184
lradius 47.1084
lwrist 7.68516
lhand -4.8951 -12.6826
lfingers 7.12502
lthumb 20.8942 16.2121
rfemur -16.7031 -0.254961 17.7114
rtibia 12.4869
rfoot -3.05783 -17.684
rtoes -2.65937
lfemur -13.925 -3.44021 -18.3531
ltibia 18.1526
lfoot -10.4884 -11.5407
ltoes 25.6096
327
root 10.3817 28.087 -29.6164 10.6656 -2.26591 -0.0645665
lowerback 4.20474 -0.257188 1.91478
upperback 2.97886 -0.284201 0.841102
thorax 0.695812 -0.12236 -0.200948
lowerneck -2.65138 -0.660612 0.975701
upperneck 9.09331 -0.875687 -0.793504
head 3.37926 -0.431271 -0.461226
rclavicle -7.85199e-015 2.38542e-015
rhumerus -35.8958 -2.43983 -77.4992
rradius 36.4046
rwrist 3.16259
rhand 1.6136 -18.9215
rfingers 7.12502
rthumb 27.135 -46.9909
lclavicle -7.85199e-015 2.38542e-015
lhumerus -30.3448 -22.6452 83.2942
lradius 47.2629
lwrist 7.51699
lhand -4.7402 -12.7407
lfingers 7.12502
lthumb 21.043 16.1376
rfemur -16.6941 -0.25332 17.5331
rtibia 12.5225
rfoot -3.19125 -17.9169
rtoes -1.4498
lfemur -13.7627 -3.23743 -18.4761
ltibia 17.8016
lfoot -10.499 -11.7071
ltoes 26.4763
